<svg xmlns="http://www.w3.org/2000/svg" viewBox="0 0 23 23">
  <path d="M17,1.5c2.5,0,4.5,2,4.5,4.5v11c0,2.5-2,4.5-4.5,4.5H6c-2.5,0-4.5-2-4.5-4.5V6c0-2.5,2-4.5,4.5-4.5L17,1.5 M17,0H6
    C2.7,0,0,2.7,0,6v11c0,3.3,2.7,6,6,6h11c3.3,0,6-2.7,6-6V6C23,2.7,20.3,0,17,0z"/>
  <path d="M11.5,7.1c2.4,0,4.4,2,4.4,4.4c0,2.4-2,4.4-4.4,4.4c-2.4,0-4.4-2-4.4-4.4C7.1,9.1,9.1,7.1,11.5,7.1 M11.5,5.6
    c-3.3,0.1-5.9,2.8-5.8,6.1c0.1,3.2,2.6,5.7,5.8,5.8c3.3,0,5.9-2.7,5.9-5.9S14.8,5.6,11.5,5.6z"/>
  <circle cx="17.6" cy="5.4" r="1.3"/>
</svg>
