<svg xmlns="http://www.w3.org/2000/svg" viewBox="0 0 101 18">
  <path class="logo__letters-cat" fill="#111111" d="M1.2,16.6c-0.8-1-1.2-2.5-1.2-4.4V5.9C0,4,0.4,2.5,1.2,1.5S3.4,0,5.4,0c1.9,0,3.2,0.4,4,1.3 c0.8,0.9,1.2,2.1,1.2,3.8v1.5h-4V4.8c0-0.7-0.1-1.2-0.2-1.6c-0.1-0.3-0.5-0.5-1-0.5s-1,0.2-1.1,0.6C4.1,3.7,4,4.2,4,4.9v8.3 c0,0.7,0.1,1.2,0.3,1.6c0.2,0.4,0.5,0.6,1.1,0.6c0.5,0,0.9-0.2,1-0.6c0.2-0.4,0.2-0.9,0.2-1.6v-1.8h3.9v1.5c0,1.6-0.4,2.9-1.2,3.9 c-0.8,0.9-2.1,1.4-4,1.4C3.4,18.1,2,17.6,1.2,16.6z M15.2,0.2h4.5L23,17.8h-3.6l-0.6-3.7h-2.6l-0.6,3.7h-3.7L15.2,0.2z M18.4,11.8 l-0.9-6.9l-0.9,6.9H18.4z M25.8,3.1h-2.7V0.2h9.3v2.9h-2.7v14.7h-4V3.1H25.8z"/>
  <path class="logo__letters-energy" fill="#111111" d="M39.5,0.2h6.9V2H42v5.8h3.6v1.7H42v6.4h4.5v1.8h-7V0.2z M48.5,0.2h1.7l5.1,11.7V0.2h2.1v17.6h-1.6l-5.1-12v12 h-2.1V0.2H48.5z M59.8,0.2h6.9V2h-4.4v5.8h3.6v1.7h-3.6v6.4h4.5v1.8h-7C59.8,17.7,59.8,0.2,59.8,0.2z M68.8,0.2h3.6 c1.8,0,3.1,0.4,4,1.1s1.3,1.9,1.3,3.6c0,2.3-0.7,3.6-2.2,4.1l2.5,8.8h-2.4l-2.3-8.3h-1.9v8.3h-2.5L68.8,0.2L68.8,0.2z M72.2,7.8 c1.1,0,1.8-0.2,2.3-0.6s0.7-1.2,0.7-2.3c0-0.7-0.1-1.3-0.2-1.7s-0.4-0.7-0.9-0.9c-0.4-0.2-1-0.3-1.7-0.3h-1.1v5.8 C71.3,7.8,72.2,7.8,72.2,7.8z M80.8,16.5c-0.7-1-1.1-2.5-1.1-4.5V6.2c0-1.4,0.1-2.5,0.4-3.4s0.8-1.5,1.5-2s1.7-0.7,2.9-0.7 c1.6,0,2.8,0.4,3.6,1.2c0.7,0.8,1.1,2.1,1.1,3.9v0.7h-2.3V5.3c0-0.8-0.1-1.5-0.2-1.9c-0.1-0.5-0.3-0.8-0.7-1C85.7,2.1,85.2,2,84.6,2 c-0.7,0-1.2,0.2-1.5,0.5s-0.6,0.7-0.7,1.2s-0.1,1.2-0.1,2.1v6.5c0,1.3,0.2,2.3,0.5,2.9c0.3,0.6,1,0.9,1.9,0.9s1.6-0.3,1.9-1 c0.3-0.6,0.5-1.7,0.5-3.1v-1.2h-2.3V9.1h4.5v8.7h-1.6l-0.2-2c-0.6,1.5-1.6,2.2-3.2,2.2S81.5,17.5,80.8,16.5L80.8,16.5z M94.3,11.6 L90.4,0.2h2.3l2.7,8.5l2.7-8.5h2.3l-3.8,11.4v6.2h-2.4v-6.2L94.3,11.6z"/>
</svg>
